<svg xmlns="http://www.w3.org/2000/svg" width="1280" height="640" viewBox="0 0 1280 640" role="img" aria-labelledby="title desc">
  <title id="title">VCF Contacts Viewer social preview</title>
  <desc id="desc">Read-only VCF contact cards, raw source, search, and privacy warnings for Obsidian.</desc>
  <rect width="1280" height="640" fill="#0f172a"/>
  <rect x="72" y="64" width="1136" height="512" rx="28" fill="#f8fafc"/>
  <rect x="112" y="112" width="306" height="416" rx="18" fill="#ecfeff" stroke="#99f6e4" stroke-width="2"/>
  <rect x="456" y="112" width="712" height="416" rx="18" fill="#ffffff" stroke="#cbd5e1" stroke-width="2"/>
  <circle cx="168" cy="176" r="30" fill="#0f766e"/>
  <path d="M155 178c8 8 18 8 26 0M168 145v55" stroke="#ffffff" stroke-width="8" stroke-linecap="round"/>
  <text x="216" y="166" fill="#0f172a" font-family="ui-sans-serif, system-ui" font-size="28" font-weight="800">VCF Contacts</text>
  <text x="216" y="200" fill="#0f766e" font-family="ui-sans-serif, system-ui" font-size="28" font-weight="800">Viewer</text>
  <rect x="144" y="272" width="226" height="16" rx="8" fill="#0f766e"/>
  <rect x="144" y="320" width="176" height="14" rx="7" fill="#94a3b8"/>
  <rect x="144" y="364" width="206" height="14" rx="7" fill="#94a3b8"/>
  <rect x="144" y="408" width="152" height="14" rx="7" fill="#94a3b8"/>
  <text x="512" y="178" fill="#0f172a" font-family="ui-sans-serif, system-ui" font-size="52" font-weight="900">Read-only .vcf inspection</text>
  <text x="512" y="228" fill="#475569" font-family="ui-sans-serif, system-ui" font-size="24">Contact cards, raw source, search, and import-preflight warnings.</text>
  <rect x="512" y="292" width="596" height="1" fill="#cbd5e1"/>
  <text x="512" y="344" fill="#64748b" font-family="ui-sans-serif, system-ui" font-size="20" font-weight="800">NO CONTACT NOTES</text>
  <text x="780" y="344" fill="#64748b" font-family="ui-sans-serif, system-ui" font-size="20" font-weight="800">NO WRITE-BACK</text>
  <text x="512" y="404" fill="#64748b" font-family="ui-sans-serif, system-ui" font-size="20" font-weight="800">NO REMOTE PHOTO LOADING</text>
  <text x="512" y="464" fill="#0f766e" font-family="ui-sans-serif, system-ui" font-size="22" font-weight="900">vcf-contacts-viewer</text>
</svg>
